<?xml version="1.0" encoding="UTF-8" standalone="no"?>
<svg
   viewBox="0 0 286 64"
   version="1.1"
   id="svg67"
   xml:space="preserve"
   xmlns:xlink="http://www.w3.org/1999/xlink"
   xmlns="http://www.w3.org/2000/svg"
   xmlns:svg="http://www.w3.org/2000/svg"><defs
     id="defs71"><linearGradient
       id="linearGradient2795"><stop
         style="stop-color:#b8b8b8;stop-opacity:0.49803922"
         offset="0"
         id="stop2797" /><stop
         style="stop-color:#7f7f7f;stop-opacity:0"
         offset="1"
         id="stop2799" /></linearGradient><linearGradient
       id="linearGradient2787"><stop
         style="stop-color:#7f7f7f;stop-opacity:0.5"
         offset="0"
         id="stop2789" /><stop
         style="stop-color:#7f7f7f;stop-opacity:0"
         offset="1"
         id="stop2791" /></linearGradient><linearGradient
       id="linearGradient3676"><stop
         style="stop-color:#b2b2b2;stop-opacity:0.5"
         offset="0"
         id="stop3678" /><stop
         style="stop-color:#b3b3b3;stop-opacity:0"
         offset="1"
         id="stop3680" /></linearGradient><linearGradient
       id="linearGradient3236"><stop
         style="stop-color:#f4f4f4;stop-opacity:1"
         offset="0"
         id="stop3244" /><stop
         style="stop-color:#ffffff;stop-opacity:1"
         offset="1"
         id="stop3240" /></linearGradient><linearGradient
       id="linearGradient4671"><stop
         style="stop-color:#ffd43b;stop-opacity:1"
         offset="0"
         id="stop4673" /><stop
         style="stop-color:#ffe873;stop-opacity:1"
         offset="1"
         id="stop4675" /></linearGradient><linearGradient
       id="linearGradient4689"><stop
         style="stop-color:#5a9fd4;stop-opacity:1"
         offset="0"
         id="stop4691" /><stop
         style="stop-color:#306998;stop-opacity:1"
         offset="1"
         id="stop4693" /></linearGradient><linearGradient
       x1="224.23996"
       y1="144.75717"
       x2="-65.308502"
       y2="144.75717"
       id="linearGradient2987"
       xlink:href="#linearGradient4671"
       gradientUnits="userSpaceOnUse"
       gradientTransform="translate(100.2702,99.61116)" /><linearGradient
       x1="172.94208"
       y1="77.475983"
       x2="26.670298"
       y2="76.313133"
       id="linearGradient2990"
       xlink:href="#linearGradient4689"
       gradientUnits="userSpaceOnUse"
       gradientTransform="translate(100.2702,99.61116)" /><linearGradient
       x1="224.23996"
       y1="144.75717"
       x2="-65.308502"
       y2="144.75717"
       id="linearGradient2255"
       xlink:href="#linearGradient4671"
       gradientUnits="userSpaceOnUse"
       gradientTransform="matrix(0.562541,0,0,0.567972,-11.5974,-7.60954)" /><linearGradient
       x1="172.94208"
       y1="76.176224"
       x2="26.670298"
       y2="76.313133"
       id="linearGradient2258"
       xlink:href="#linearGradient4689"
       gradientUnits="userSpaceOnUse"
       gradientTransform="matrix(0.562541,0,0,0.567972,-11.5974,-7.60954)" /><radialGradient
       cx="61.518883"
       cy="132.28575"
       r="29.036913"
       fx="61.518883"
       fy="132.28575"
       id="radialGradient2801"
       xlink:href="#linearGradient2795"
       gradientUnits="userSpaceOnUse"
       gradientTransform="matrix(1,0,0,0.177966,0,108.7434)" /><linearGradient
       x1="150.96111"
       y1="192.35176"
       x2="112.03144"
       y2="137.27299"
       id="linearGradient1475"
       xlink:href="#linearGradient4671"
       gradientUnits="userSpaceOnUse"
       gradientTransform="matrix(0.18563853,0,0,0.18743076,231.95749,5.9179811)" /><linearGradient
       x1="26.648937"
       y1="20.603781"
       x2="135.66525"
       y2="114.39767"
       id="linearGradient1478"
       xlink:href="#linearGradient4689"
       gradientUnits="userSpaceOnUse"
       gradientTransform="matrix(0.18563853,0,0,0.18743076,231.95749,5.9179811)" /><radialGradient
       cx="61.518883"
       cy="132.28575"
       r="29.036913"
       fx="61.518883"
       fy="132.28575"
       id="radialGradient1480"
       xlink:href="#linearGradient2795"
       gradientUnits="userSpaceOnUse"
       gradientTransform="matrix(0,-0.0791825,0.34804046,1.2512101e-7,209.2833,56.792227)" /></defs><g
     id="g1301"
     transform="matrix(0.81359989,0,0,0.81359989,172.75057,6.6970434)"><g
       id="g42"><g
         id="g40"><defs
           id="defs26"><path
             id="SVGID_1_"
             d="M 47.5,17.6 25,4.8 v 52.6 l 9,-5.2 V 37.4 L 40.8,41.3 40.7,31.2 34,27.3 v -5.9 l 13.5,7.9 z" /></defs><clipPath
           id="SVGID_2_"><use
             xlink:href="#SVGID_1_"
             overflow="visible"
             id="use28" /></clipPath><g
           clip-path="url(#SVGID_2_)"
           id="g38"><linearGradient
             id="SVGID_3_"
             gradientUnits="userSpaceOnUse"
             x1="-1.6"
             y1="335.04999"
             x2="53.599998"
             y2="335.04999"
             gradientTransform="translate(0,-304)"><stop
               offset="0"
               stop-color="#ff6f00"
               id="stop31" /><stop
               offset="1"
               stop-color="#ffa800"
               id="stop33" /></linearGradient><path
             d="M -1.6,4.6 H 53.6 V 57.5 H -1.6 Z"
             fill="url(#SVGID_3_)"
             id="path36"
             style="fill:url(#SVGID_3_)" /></g></g></g><g
       id="g61"><g
         id="g59"><defs
           id="defs45"><path
             id="SVGID_4_"
             d="M 0.5,17.6 23,4.8 V 57.4 L 14,52.2 V 21.4 L 0.5,29.3 Z" /></defs><clipPath
           id="SVGID_5_"><use
             xlink:href="#SVGID_4_"
             overflow="visible"
             id="use47" /></clipPath><g
           clip-path="url(#SVGID_5_)"
           id="g57"><linearGradient
             id="SVGID_6_"
             gradientUnits="userSpaceOnUse"
             x1="-1.9"
             y1="335.04999"
             x2="53.299999"
             y2="335.04999"
             gradientTransform="translate(0,-304)"><stop
               offset="0"
               stop-color="#ff6f00"
               id="stop50" /><stop
               offset="1"
               stop-color="#ffa800"
               id="stop52" /></linearGradient><path
             d="M -1.9,4.6 H 53.3 V 57.5 H -1.9 Z"
             fill="url(#SVGID_6_)"
             id="path55"
             style="fill:url(#SVGID_6_)" /></g></g></g></g><path
     d="m 114.84044,23.595124 v -3.756111 c 0.37097,-0.02319 0.74194,-0.04637 1.11292,-0.04637 10.29453,-0.324602 17.04161,8.857003 17.04161,8.857003 0,0 -7.28036,10.10904 -15.094,10.10904 -1.04336,0 -2.06354,-0.162301 -3.03735,-0.486904 v -11.40745 c 4.01116,0.486903 4.82266,2.249029 7.21081,6.260185 l 5.35594,-4.498059 c 0,0 -3.91842,-5.124077 -10.5032,-5.124077 -0.69558,-0.02319 -1.39116,0.02319 -2.08673,0.09274 m 0,-12.427627 v 5.610984 l 1.11292,-0.06956 c 14.30568,-0.486904 23.64959,11.73205 23.64959,11.73205 0,0 -10.71187,13.03046 -21.86428,13.03046 -0.97381,0 -1.92443,-0.09274 -2.87505,-0.255045 v 3.47788 c 0.78832,0.09274 1.59983,0.162301 2.38815,0.162301 10.38727,0 17.89949,-5.309564 25.17985,-11.569749 1.20567,0.973807 6.14426,3.31558 7.16444,4.335758 -6.90939,5.796467 -23.02357,10.456827 -32.15881,10.456827 -0.88106,0 -1.71575,-0.04637 -2.55044,-0.139115 v 4.892221 h 39.46235 V 11.167497 Z m 0,27.104283 v 2.967792 c -9.59895,-1.715752 -12.26533,-11.708862 -12.26533,-11.708862 0,0 4.61399,-5.100891 12.26533,-5.935583 v 3.246022 h -0.0232 c -4.01116,-0.486903 -7.16444,3.269208 -7.16444,3.269208 0,0 1.78531,6.329743 7.18762,8.161426 M 97.798827,29.113361 c 0,0 5.680533,-8.393285 17.064793,-9.274348 v -3.060535 c -12.61311,1.020178 -23.510468,11.685679 -23.510468,11.685679 0,0 6.167442,17.85312 23.487288,19.476131 V 44.694266 C 102.13458,43.117627 97.798827,29.113361 97.798827,29.113361 Z"
     fill="#76b900"
     id="path249"
     style="stroke-width:0.231859" /><path
     style="fill:#2497ed;fill-opacity:1;stroke-width:0.06"
     d="m 31.757322,53.578292 c -3.34786,-0.184065 -5.49637,-0.523707 -7.97172,-1.260194 -0.80295,-0.238899 -2.06768,-0.733804 -2.73329,-1.06957 -3.28881,-1.659043 -5.74703,-4.777321 -7.229989,-9.17131 -0.92416,-2.738262 -1.46401,-6.164119 -1.40587,-8.921585 0.0204,-0.967541 0.0249,-0.997301 0.19914,-1.311853 0.19407,-0.350401 0.53692,-0.665071 0.90636,-0.831874 0.22333,-0.100839 1.283169,-0.107813 20.725369,-0.136391 l 20.49,-0.03012 0.7485,-0.140737 c 0.86645,-0.162916 1.58528,-0.362565 2.21938,-0.616413 0.63707,-0.255033 0.62866,-0.240904 0.38785,-0.651791 -0.37526,-0.640288 -0.71572,-1.547242 -0.90645,-2.414732 -0.16869,-0.767229 -0.15149,-2.673124 0.0318,-3.52609 0.29966,-1.394345 0.9399,-2.944296 1.66054,-4.02 0.55181,-0.823677 0.44388,-0.793188 1.20473,-0.340315 2.24428,1.335835 3.85599,3.554684 4.38035,6.03043 l 0.10593,0.500116 0.24368,-0.03629 c 1.13283,-0.168685 2.90647,-0.211446 3.78369,-0.09122 1.05174,0.144146 2.01591,0.419021 2.73,0.778298 0.27359,0.137653 0.80519,0.505186 1.18145,0.816823 0.0681,0.05638 0.0471,0.165137 -0.12395,0.643833 -0.69232,1.93701 -2.36903,3.647829 -4.42508,4.515105 -1.10687,0.466897 -2.34733,0.71928 -3.80944,0.775068 -0.45678,0.01743 -0.84649,0.05114 -0.86601,0.07492 -0.0195,0.02378 -0.20667,0.46173 -0.41591,0.97323 -2.65525,6.491108 -6.15891,11.083673 -10.95107,14.354569 -3.0235,2.063696 -6.84006,3.607555 -10.92,4.417316 -1.50108,0.297925 -2.42473,0.418183 -4.89,0.636675 -0.46037,0.0408 -3.82971,0.08271 -4.35,0.0541 z m -14.13,-24.022659 c -0.14262,-0.142621 -0.13073,0.111058 -0.1334,-2.8464 l -0.002,-2.3964 0.16113,-0.1386 0.16113,-0.1386 h 2.77857 c 2.72014,0 2.78188,0.0026 2.93665,0.124355 l 0.15809,0.124355 v 2.575645 c 0,2.495646 -0.004,2.579373 -0.12,2.695645 -0.11663,0.116632 -0.2,0.12 -2.97,0.12 -2.77,0 -2.85337,-0.0034 -2.97,-0.12 z m 7.32,0 c -0.11627,-0.116272 -0.12,-0.199999 -0.12,-2.695645 v -2.575597 l 0.15809,-0.124355 c 0.15476,-0.121733 0.21657,-0.124355 2.93191,-0.124355 2.71535,0 2.77715,0.0026 2.93191,0.124355 l 0.15809,0.124355 v 2.575645 c 0,2.495646 -0.004,2.579373 -0.12,2.695645 -0.11663,0.116632 -0.2,0.12 -2.97,0.12 -2.77,0 -2.85337,-0.0034 -2.97,-0.12 z m 7.44,0 c -0.14262,-0.142621 -0.13073,0.111058 -0.1334,-2.8464 l -0.002,-2.3964 0.16113,-0.1386 0.16114,-0.1386 h 2.77856 c 2.72014,0 2.78188,0.0026 2.93665,0.124355 l 0.15809,0.124355 v 2.575645 c 0,2.495646 -0.004,2.579373 -0.12,2.695645 -0.11663,0.116632 -0.2,0.12 -2.97,0.12 -2.77,0 -2.85336,-0.0034 -2.97,-0.12 z m 7.32436,-0.03809 c -0.1213,-0.154204 -0.12436,-0.219699 -0.12436,-2.663353 0,-2.376988 0.006,-2.512514 0.11467,-2.646909 l 0.11466,-0.141647 2.85637,-0.0167 2.85637,-0.0167 0.14896,0.148969 0.14897,0.14897 v 2.514636 c 0,2.453137 -0.003,2.518502 -0.12435,2.672727 l -0.12436,0.158091 h -2.87129 -2.87129 z m 7.43564,0.03809 c -0.11627,-0.116272 -0.12,-0.199999 -0.12,-2.695645 v -2.575597 l 0.1581,-0.124355 c 0.15476,-0.12174 0.2165,-0.124355 2.93665,-0.124355 h 2.77856 l 0.16146,0.138881 0.16146,0.138879 -0.003,2.366121 c -0.003,2.967831 0.008,2.734839 -0.13367,2.876119 -0.11663,0.116632 -0.2,0.12 -2.97,0.12 -2.77,0 -2.85336,-0.0034 -2.97,-0.12 z m -22.16191,-6.784354 -0.15809,-0.124355 v -2.575645 c 0,-2.495646 0.004,-2.579373 0.12,-2.695645 0.11663,-0.116632 0.2,-0.12 2.97,-0.12 2.77,0 2.85337,0.0034 2.97,0.12 0.11628,0.116272 0.12,0.199999 0.12,2.695645 v 2.575645 l -0.15809,0.124355 c -0.15476,0.121733 -0.21656,0.124355 -2.93191,0.124355 -2.71534,0 -2.77715,-0.0026 -2.93191,-0.124355 z m 7.42609,-0.01543 -0.16251,-0.139788 0.004,-2.395212 c 0.002,-1.317367 0.006,-2.469462 0.009,-2.560212 0.003,-0.09075 0.0593,-0.219 0.12531,-0.285 0.11664,-0.116632 0.2,-0.12 2.97,-0.12 2.77,0 2.85337,0.0034 2.97,0.12 0.11628,0.116272 0.12,0.199999 0.12,2.695645 v 2.575645 l -0.15809,0.124355 c -0.15477,0.12174 -0.21651,0.124355 -2.93665,0.124355 h -2.77857 z m 7.43475,0.07937 c -0.0721,-0.02905 -0.15985,-0.106561 -0.195,-0.172252 -0.0423,-0.079 -0.0639,-0.96111 -0.0639,-2.605293 0,-2.424019 0.003,-2.489786 0.12436,-2.643945 l 0.12435,-0.158091 h 2.87129 2.87129 l 0.12436,0.158091 c 0.1212,0.154084 0.12433,0.21986 0.12354,2.595 -4.8e-4,1.3403 -0.0174,2.49874 -0.0376,2.574312 -0.0816,0.304798 -0.16276,0.312894 -3.09358,0.308793 -1.49489,-0.0021 -2.77696,-0.02757 -2.84905,-0.05662 z m -0.13457,-6.937673 c -0.12132,-0.154225 -0.12436,-0.21959 -0.12436,-2.672727 v -2.514591 l 0.14897,-0.14897 0.14897,-0.148969 2.85637,0.0167 2.85637,0.0167 0.11466,0.141647 c 0.10879,0.134394 0.11466,0.26992 0.11466,2.646907 0,2.443654 -0.003,2.509149 -0.12435,2.663353 l -0.12436,0.158092 h -2.87129 -2.87129 z"
     id="path277" /><path
     style="fill:#000000;stroke-width:0.06"
     id="path275"
     d="" /><g
     id="g3628"
     transform="matrix(1.1747469,0,0,1.1747469,-48.098123,-1.2734704)"><path
       id="path1948"
       style="fill:url(#linearGradient1478);fill-opacity:1;stroke-width:0.33"
       d="m 255.02776,9.780067 c -1.5126,0.007 -2.95711,0.136032 -4.22812,0.360937 -3.74425,0.661487 -4.42407,2.046034 -4.42407,4.599375 v 3.372188 h 8.84813 v 1.124062 h -8.84813 -3.32062 c -2.57151,0 -4.8232,1.545627 -5.5275,4.485938 -0.8124,3.370279 -0.84844,5.473387 0,8.9925 0.62896,2.619491 2.13099,4.485937 4.7025,4.485937 h 3.04219 v -4.0425 c 0,-2.920467 2.52685,-5.496562 5.5275,-5.496562 h 8.83781 c 2.46013,0 4.42406,-2.025594 4.42406,-4.49625 v -8.425313 c 0,-2.397892 -2.02289,-4.199176 -4.42406,-4.599375 -1.51998,-0.253019 -3.09708,-0.367966 -4.60969,-0.360937 z m -4.785,2.712187 c 0.91395,0 1.66031,0.758553 1.66031,1.69125 0,0.929391 -0.74636,1.680938 -1.66031,1.680938 -0.91723,-1e-6 -1.66031,-0.751547 -1.66031,-1.680938 0,-0.932696 0.74308,-1.69125 1.66031,-1.69125 z" /><path
       id="path1950"
       style="fill:url(#linearGradient1475);fill-opacity:1;stroke-width:0.33"
       d="m 265.16495,19.236629 v 3.929063 c 0,3.046149 -2.58255,5.609999 -5.5275,5.61 h -8.83781 c -2.42083,0 -4.42407,2.071899 -4.42407,4.49625 v 8.425311 c 0,2.397893 2.08514,3.808306 4.42407,4.49625 2.80082,0.823552 5.48665,0.972388 8.83781,0 2.22755,-0.644948 4.42406,-1.942911 4.42406,-4.49625 v -3.372186 h -8.83781 v -1.124063 h 8.83781 4.42407 c 2.57151,0 3.52976,-1.793684 4.42405,-4.485937 0.92378,-2.771633 0.88448,-5.437006 0,-8.9925 -0.6355,-2.559956 -1.84927,-4.485938 -4.42405,-4.485938 z m -4.97063,21.336563 c 0.91723,1e-6 1.66032,0.751547 1.66032,1.680936 0,0.932696 -0.74309,1.69125 -1.66032,1.69125 -0.91395,0 -1.66031,-0.758554 -1.66031,-1.69125 0,-0.929389 0.74636,-1.680936 1.66031,-1.680936 z" /></g></svg>
